<?xml version="1.0" encoding="UTF-8" standalone="no"?>
<!-- Created with Inkscape (http://www.inkscape.org/) -->

<svg
   width="512"
   height="512"
   id="svg2"
   version="1.1"
   xmlns:xlink="http://www.w3.org/1999/xlink"
   xmlns="http://www.w3.org/2000/svg"
   xmlns:svg="http://www.w3.org/2000/svg"
   xmlns:rdf="http://www.w3.org/1999/02/22-rdf-syntax-ns#"
   xmlns:cc="http://creativecommons.org/ns#"
   xmlns:dc="http://purl.org/dc/elements/1.1/">
  <defs
     id="defs4">
    <linearGradient
       id="linearGradient3953">
      <stop
         style="stop-color:#ffffff;stop-opacity:1;"
         offset="0"
         id="stop3955" />
      <stop
         style="stop-color:#feffff;stop-opacity:0.50196081;"
         offset="1"
         id="stop3957" />
    </linearGradient>
    <linearGradient
       id="linearGradient3118">
      <stop
         style="stop-color:#ffffff;stop-opacity:0"
         offset="0"
         id="stop3120" />
      <stop
         style="stop-color:#ffffff;stop-opacity:1"
         offset="1"
         id="stop3122" />
    </linearGradient>
    <filter
       id="filter3116"
       style="color-interpolation-filters:sRGB;">
      <feFlood
         id="feFlood3118"
         flood-opacity="0.75"
         flood-color="rgb(0,0,0)"
         result="flood" />
      <feComposite
         id="feComposite3120"
         in2="SourceGraphic"
         in="flood"
         operator="in"
         result="composite1" />
      <feGaussianBlur
         id="feGaussianBlur3122"
         in="composite"
         stdDeviation="2"
         result="blur" />
      <feOffset
         id="feOffset3124"
         dx="2"
         dy="2"
         result="offset" />
      <feComposite
         id="feComposite3126"
         in2="offset"
         in="SourceGraphic"
         operator="over"
         result="composite2" />
    </filter>
    <linearGradient
       xlink:href="#linearGradient4771-8"
       id="linearGradient4777-0"
       x1="-14.585925"
       y1="259.91068"
       x2="328.24274"
       y2="238.17403"
       gradientUnits="userSpaceOnUse" />
    <linearGradient
       id="linearGradient4771-8">
      <stop
         style="stop-color:#00aad4;stop-opacity:1;"
         offset="0"
         id="stop4773-6" />
      <stop
         style="stop-color:#00aad4;stop-opacity:0;"
         offset="1"
         id="stop4775-9" />
    </linearGradient>
    <linearGradient
       xlink:href="#linearGradient4779-3"
       id="linearGradient4785-8"
       x1="-2.2289617"
       y1="246.72945"
       x2="343.78476"
       y2="127.89465"
       gradientUnits="userSpaceOnUse" />
    <linearGradient
       id="linearGradient4779-3">
      <stop
         style="stop-color:#00ccff;stop-opacity:1;"
         offset="0"
         id="stop4781-0" />
      <stop
         style="stop-color:#00ccff;stop-opacity:0;"
         offset="1"
         id="stop4783-8" />
    </linearGradient>
    <linearGradient
       xlink:href="#linearGradient4779-3"
       id="linearGradient4874"
       gradientUnits="userSpaceOnUse"
       x1="-2.2289617"
       y1="246.72945"
       x2="343.78476"
       y2="127.89465" />
    <linearGradient
       xlink:href="#linearGradient4771-8"
       id="linearGradient4876"
       gradientUnits="userSpaceOnUse"
       x1="-14.585925"
       y1="259.91068"
       x2="328.24274"
       y2="238.17403" />
  </defs>
  <metadata
     id="metadata7">
    <rdf:RDF>
      <cc:Work
         rdf:about="">
        <dc:format>image/svg+xml</dc:format>
        <dc:type
           rdf:resource="http://purl.org/dc/dcmitype/StillImage" />
      </cc:Work>
    </rdf:RDF>
  </metadata>
  <g
     id="layer2"
     style="display:inline">
    <path
       id="path134"
       style="fill:#aaeeff;fill-rule:evenodd;stroke:#ffffff;stroke-width:6.38553"
       transform="matrix(0.91108737,-0.14792731,0.14792731,0.91108737,1057.7569,125.82397)"
       d="m -784.00001,256 -269.70249,-44.86158 -96,-255.999992 L -975.99999,-256 l 269.7025,44.86158 95.99998,255.999992 z" />
    <path
       style="display:inline;fill:none;fill-rule:evenodd;stroke:#ffffff;stroke-width:8.76169;stroke-miterlimit:4;stroke-dasharray:none"
       id="path134-7"
       transform="matrix(0.67594779,-0.10974922,0.10974922,0.67594779,850.83406,159.42069)"
       d="m -784.00001,256 -269.70249,-44.86158 -96,-255.999992 L -975.99999,-256 l 269.7025,44.86158 95.99998,255.999992 z" />
    <path
       style="display:inline;fill:none;fill-rule:evenodd;stroke:#ffffff;stroke-width:15.1232;stroke-miterlimit:4;stroke-dasharray:none"
       id="path134-7-6"
       transform="matrix(0.39161369,-0.06358376,0.06358376,0.39161369,600.62005,200.04629)"
       d="m -784.00001,256 -269.70249,-44.86158 -96,-255.999992 L -975.99999,-256 l 269.7025,44.86158 95.99998,255.999992 z" />
    <path
       style="fill:#ffffff;stroke:#ffffff;stroke-width:6;stroke-linecap:butt;stroke-linejoin:miter;stroke-miterlimit:4;stroke-dasharray:none;stroke-opacity:1"
       d="M 130.66624,36.962656 381.33378,475.03735"
       id="path1374" />
    <path
       style="display:inline;fill:#ffffff;stroke:#ffffff;stroke-width:6;stroke-linecap:butt;stroke-linejoin:miter;stroke-miterlimit:4;stroke-dasharray:none;stroke-opacity:1"
       d="M 383.02504,37.93911 128.975,474.06089"
       id="path1374-8" />
    <path
       style="display:inline;fill:#ffffff;stroke:#ffffff;stroke-width:6;stroke-linecap:butt;stroke-linejoin:miter;stroke-miterlimit:4;stroke-dasharray:none;stroke-opacity:1"
       d="M 508.3588,256.97645 3.6412213,255.02356"
       id="path1374-8-0" />
    <path
       style="fill:none;stroke:#008080;stroke-width:32;stroke-linecap:butt;stroke-linejoin:bevel;stroke-miterlimit:4;stroke-dasharray:none;stroke-opacity:1"
       d="M 70.089879,257.6094 163.07665,420.11611 256.00002,256 350.30497,420.84055 444.54652,259.05829"
       id="path1951" />
    <path
       style="display:inline;fill:none;stroke:#00aad4;stroke-width:32;stroke-linecap:butt;stroke-linejoin:bevel;stroke-miterlimit:4;stroke-dasharray:none;stroke-opacity:1;paint-order:normal"
       d="M 366.88574,255.04007 311.42397,158.11328 256.00001,256 199.75202,157.6812 143.54184,254.17589"
       id="path1951-8-7" />
  </g>
  <g
     id="layer3"
     style="display:none">
    <rect
       style="fill:#cccccc;fill-opacity:1;stroke:none;display:inline"
       id="rect3066-4-0"
       width="480"
       height="480"
       x="16"
       y="16" />
  </g>
  <g
     id="layer4"
     style="display:none">
    <rect
       style="fill:#ececec;fill-opacity:1;stroke:none;display:inline"
       id="rect4498-59-4-1-2-9-0-5"
       width="96"
       height="96"
       x="304"
       y="-400"
       rx="10"
       ry="10"
       transform="matrix(0,1,-1,0,0,0)" />
    <rect
       style="fill:#ececec;fill-opacity:1;stroke:none;display:inline"
       id="rect4498-59-4-1-2-9-0-5-2"
       width="96"
       height="96"
       x="400"
       y="-304"
       rx="10"
       ry="10"
       transform="matrix(0,1,-1,0,0,0)" />
    <rect
       style="fill:#cccccc;fill-opacity:1;stroke:none;display:inline"
       id="rect4498-59-4-1-2-9"
       width="96"
       height="96"
       x="304"
       y="-208"
       rx="10"
       ry="10"
       transform="matrix(0,1,-1,0,0,0)" />
    <rect
       style="fill:#e6e6e6;fill-opacity:1;stroke:none;display:inline"
       id="rect4498-59-4-1-2-9-0"
       width="96"
       height="96"
       x="208"
       y="-208"
       rx="10"
       ry="10"
       transform="matrix(0,1,-1,0,0,0)" />
    <rect
       style="fill:#e6e6e6;fill-opacity:1;stroke:none;display:inline"
       id="rect4498-59-4-1-2-9-5"
       width="96"
       height="96"
       x="208"
       y="-400"
       rx="10"
       ry="10"
       transform="matrix(0,1,-1,0,0,0)" />
    <rect
       style="fill:#cccccc;fill-opacity:1;stroke:none;display:inline"
       id="rect4498-59-4-1-2-9-9"
       width="96"
       height="96"
       x="400"
       y="-496"
       rx="10"
       ry="10"
       transform="matrix(0,1,-1,0,0,0)" />
    <rect
       style="fill:#ececec;fill-opacity:1;stroke:none;display:inline"
       id="rect4498-59-4-1-2-9-7"
       width="96"
       height="96"
       x="400"
       y="-112"
       rx="10"
       ry="10"
       transform="matrix(0,1,-1,0,0,0)" />
    <rect
       style="fill:#f2f2f2;fill-opacity:1;stroke:none;display:inline"
       id="rect4498-59-4-1-2-9-0-0"
       width="96"
       height="96"
       x="112"
       y="-400"
       rx="10"
       ry="10"
       transform="matrix(0,1,-1,0,0,0)" />
    <rect
       style="fill:#cccccc;fill-opacity:1;stroke:none;display:inline"
       id="rect4498-59-4-1-2-9-5-2"
       width="96"
       height="96"
       x="112"
       y="-304"
       rx="10"
       ry="10"
       transform="matrix(0,1,-1,0,0,0)" />
    <rect
       style="fill:#ececec;fill-opacity:1;stroke:none;display:inline"
       id="rect4498-59-4-1-2-9-0-0-1"
       width="96"
       height="96"
       x="112"
       y="-208"
       rx="10"
       ry="10"
       transform="matrix(0,1,-1,0,0,0)" />
    <rect
       style="fill:#e6e6e6;fill-opacity:1;stroke:none;display:inline"
       id="rect4498-59-4-1-2-9-0-0-6"
       width="96"
       height="96"
       x="16.000002"
       y="-208"
       rx="10"
       ry="10"
       transform="matrix(0,1,-1,0,0,0)" />
    <rect
       style="fill:#cccccc;fill-opacity:1;stroke:none;display:inline"
       id="rect4498-59-4-1-2-9-6"
       width="96"
       height="96"
       x="16.000002"
       y="-400"
       rx="10"
       ry="10"
       transform="matrix(0,1,-1,0,0,0)" />
    <rect
       style="fill:#f2f2f2;fill-opacity:1;stroke:none;display:inline"
       id="rect4498-59-4-1-2-9-0-0-7"
       width="96"
       height="96"
       x="16.000002"
       y="-304"
       rx="10"
       ry="10"
       transform="matrix(0,1,-1,0,0,0)" />
  </g>
  <g
     id="layer1"
     transform="translate(0,-540.36218)"
     style="display:inline">
    <text
       xml:space="preserve"
       style="font-style:normal;font-variant:normal;font-weight:bold;font-stretch:normal;line-height:0%;font-family:Arial;-inkscape-font-specification:'Sans Bold';letter-spacing:0px;word-spacing:0px;fill:#000000;fill-opacity:1;stroke:none"
       x="179.43053"
       y="252.82259"
       id="text3922"
       transform="translate(0,540.36218)"><tspan
         id="tspan3924"
         x="179.43053"
         y="252.82259"
         style="font-size:40px;line-height:1.25"> </tspan></text>
  </g>
</svg>
