<?xml version="1.0" encoding="UTF-8" standalone="no"?>
<svg
   xmlns:dc="http://purl.org/dc/elements/1.1/"
   xmlns:cc="http://creativecommons.org/ns#"
   xmlns:rdf="http://www.w3.org/1999/02/22-rdf-syntax-ns#"
   xmlns:svg="http://www.w3.org/2000/svg"
   xmlns="http://www.w3.org/2000/svg"
   xmlns:xlink="http://www.w3.org/1999/xlink"
   version="1.1"
   id="svg2"
   height="512"
   width="512">
  <defs
     id="defs4">
    <linearGradient
       id="linearGradient3953">
      <stop
         id="stop3955"
         offset="0"
         style="stop-color:#ffffff;stop-opacity:1;" />
      <stop
         id="stop3957"
         offset="1"
         style="stop-color:#feffff;stop-opacity:0.50196081;" />
    </linearGradient>
    <linearGradient
       id="linearGradient3118">
      <stop
         id="stop3120"
         offset="0"
         style="stop-color:#ffffff;stop-opacity:0" />
      <stop
         id="stop3122"
         offset="1"
         style="stop-color:#ffffff;stop-opacity:1" />
    </linearGradient>
    <filter
       style="color-interpolation-filters:sRGB;"
       id="filter3116">
      <feFlood
         result="flood"
         flood-color="rgb(0,0,0)"
         flood-opacity="0.75"
         id="feFlood3118" />
      <feComposite
         result="composite1"
         operator="in"
         in="flood"
         in2="SourceGraphic"
         id="feComposite3120" />
      <feGaussianBlur
         result="blur"
         stdDeviation="2"
         in="composite"
         id="feGaussianBlur3122" />
      <feOffset
         result="offset"
         dy="2"
         dx="2"
         id="feOffset3124" />
      <feComposite
         result="composite2"
         operator="over"
         in="SourceGraphic"
         in2="offset"
         id="feComposite3126" />
    </filter>
    <linearGradient
       gradientUnits="userSpaceOnUse"
       y2="238.17403"
       x2="328.24274"
       y1="259.91068"
       x1="-14.585925"
       id="linearGradient4777-0"
       xlink:href="#linearGradient4771-8" />
    <linearGradient
       id="linearGradient4771-8">
      <stop
         id="stop4773-6"
         offset="0"
         style="stop-color:#00aad4;stop-opacity:1;" />
      <stop
         id="stop4775-9"
         offset="1"
         style="stop-color:#00aad4;stop-opacity:0;" />
    </linearGradient>
    <linearGradient
       gradientUnits="userSpaceOnUse"
       y2="127.89465"
       x2="343.78476"
       y1="246.72945"
       x1="-2.2289617"
       id="linearGradient4785-8"
       xlink:href="#linearGradient4779-3" />
    <linearGradient
       id="linearGradient4779-3">
      <stop
         id="stop4781-0"
         offset="0"
         style="stop-color:#00ccff;stop-opacity:1;" />
      <stop
         id="stop4783-8"
         offset="1"
         style="stop-color:#00ccff;stop-opacity:0;" />
    </linearGradient>
    <linearGradient
       y2="127.89465"
       x2="343.78476"
       y1="246.72945"
       x1="-2.2289617"
       gradientUnits="userSpaceOnUse"
       id="linearGradient4874"
       xlink:href="#linearGradient4779-3" />
    <linearGradient
       y2="238.17403"
       x2="328.24274"
       y1="259.91068"
       x1="-14.585925"
       gradientUnits="userSpaceOnUse"
       id="linearGradient4876"
       xlink:href="#linearGradient4771-8" />
    <filter
       id="filter3995">
      <feGaussianBlur
         id="feGaussianBlur3997"
         stdDeviation="2.3369053" />
    </filter>
  </defs>
  <metadata
     id="metadata7">
    <rdf:RDF>
      <cc:Work
         rdf:about="">
        <dc:format>image/svg+xml</dc:format>
        <dc:type
           rdf:resource="http://purl.org/dc/dcmitype/StillImage" />
        <dc:title></dc:title>
      </cc:Work>
    </rdf:RDF>
  </metadata>
  <g
     style="display:inline"
     id="layer2">
    <rect
       transform="matrix(1.0098293,0,0,1.0277371,-6.7639521,-7.1006919)"
       rx="235.79369"
       ry="231.58737"
       y="24.412621"
       x="24.412621"
       height="463.17474"
       width="471.58737"
       id="rect3066-4"
       style="fill:#ffffff;fill-opacity:1;stroke:#808080;stroke-width:24;stroke-linecap:butt;stroke-linejoin:round;stroke-miterlimit:4;stroke-dasharray:none;filter:url(#filter3995)" />
  </g>
  <g
     style="display:none"
     id="layer3">
    <rect
       y="16"
       x="16"
       height="480"
       width="480"
       id="rect3066-4-0"
       style="fill:#cccccc;fill-opacity:1;stroke:none;display:inline" />
  </g>
  <g
     style="display:none"
     id="layer4">
    <rect
       transform="matrix(0,1,-1,0,0,0)"
       ry="10"
       rx="10"
       y="-400"
       x="304"
       height="96"
       width="96"
       id="rect4498-59-4-1-2-9-0-5"
       style="fill:#ececec;fill-opacity:1;stroke:none;display:inline" />
    <rect
       transform="matrix(0,1,-1,0,0,0)"
       ry="10"
       rx="10"
       y="-304"
       x="400"
       height="96"
       width="96"
       id="rect4498-59-4-1-2-9-0-5-2"
       style="fill:#ececec;fill-opacity:1;stroke:none;display:inline" />
    <rect
       transform="matrix(0,1,-1,0,0,0)"
       ry="10"
       rx="10"
       y="-208"
       x="304"
       height="96"
       width="96"
       id="rect4498-59-4-1-2-9"
       style="fill:#cccccc;fill-opacity:1;stroke:none;display:inline" />
    <rect
       transform="matrix(0,1,-1,0,0,0)"
       ry="10"
       rx="10"
       y="-208"
       x="208"
       height="96"
       width="96"
       id="rect4498-59-4-1-2-9-0"
       style="fill:#e6e6e6;fill-opacity:1;stroke:none;display:inline" />
    <rect
       transform="matrix(0,1,-1,0,0,0)"
       ry="10"
       rx="10"
       y="-400"
       x="208"
       height="96"
       width="96"
       id="rect4498-59-4-1-2-9-5"
       style="fill:#e6e6e6;fill-opacity:1;stroke:none;display:inline" />
    <rect
       transform="matrix(0,1,-1,0,0,0)"
       ry="10"
       rx="10"
       y="-496"
       x="400"
       height="96"
       width="96"
       id="rect4498-59-4-1-2-9-9"
       style="fill:#cccccc;fill-opacity:1;stroke:none;display:inline" />
    <rect
       transform="matrix(0,1,-1,0,0,0)"
       ry="10"
       rx="10"
       y="-112"
       x="400"
       height="96"
       width="96"
       id="rect4498-59-4-1-2-9-7"
       style="fill:#ececec;fill-opacity:1;stroke:none;display:inline" />
    <rect
       transform="matrix(0,1,-1,0,0,0)"
       ry="10"
       rx="10"
       y="-400"
       x="112"
       height="96"
       width="96"
       id="rect4498-59-4-1-2-9-0-0"
       style="fill:#f2f2f2;fill-opacity:1;stroke:none;display:inline" />
    <rect
       transform="matrix(0,1,-1,0,0,0)"
       ry="10"
       rx="10"
       y="-304"
       x="112"
       height="96"
       width="96"
       id="rect4498-59-4-1-2-9-5-2"
       style="fill:#cccccc;fill-opacity:1;stroke:none;display:inline" />
    <rect
       transform="matrix(0,1,-1,0,0,0)"
       ry="10"
       rx="10"
       y="-208"
       x="112"
       height="96"
       width="96"
       id="rect4498-59-4-1-2-9-0-0-1"
       style="fill:#ececec;fill-opacity:1;stroke:none;display:inline" />
    <rect
       transform="matrix(0,1,-1,0,0,0)"
       ry="10"
       rx="10"
       y="-208"
       x="16.000002"
       height="96"
       width="96"
       id="rect4498-59-4-1-2-9-0-0-6"
       style="fill:#e6e6e6;fill-opacity:1;stroke:none;display:inline" />
    <rect
       transform="matrix(0,1,-1,0,0,0)"
       ry="10"
       rx="10"
       y="-400"
       x="16.000002"
       height="96"
       width="96"
       id="rect4498-59-4-1-2-9-6"
       style="fill:#cccccc;fill-opacity:1;stroke:none;display:inline" />
    <rect
       transform="matrix(0,1,-1,0,0,0)"
       ry="10"
       rx="10"
       y="-304"
       x="16.000002"
       height="96"
       width="96"
       id="rect4498-59-4-1-2-9-0-0-7"
       style="fill:#f2f2f2;fill-opacity:1;stroke:none;display:inline" />
  </g>
  <g
     style="display:inline"
     transform="translate(0,-540.36218)"
     id="layer1">
    <text
       transform="translate(0,540.36218)"
       id="text3922"
       y="252.82259"
       x="179.43053"
       style="font-style:normal;font-variant:normal;font-weight:bold;font-stretch:normal;line-height:0%;font-family:Arial;-inkscape-font-specification:'Sans Bold';letter-spacing:0px;word-spacing:0px;fill:#000000;fill-opacity:1;stroke:none"
       xml:space="preserve"><tspan
         style="font-size:40px;line-height:1.25"
         y="252.82259"
         x="179.43053"
         id="tspan3924"> </tspan></text>
    <g
       transform="translate(511.75,-304.00001)"
       id="g3151">
      <path
         id="path3027-1"
         style="fill:#00aad4;fill-opacity:1;stroke:#000000;stroke-width:1px;stroke-linecap:butt;stroke-linejoin:miter;stroke-opacity:1;display:inline"
         d="m -416,1180.3622 0,0 32,0 128,-192.00002 0,128.00002 96,-128.00002 0,192.00002 32,0 m 0.5,0 0,-256.00002 -96,128.00002 0,-128.00002 -192,256.00002 0,0 0,0" />
      <path
         id="path3027"
         style="fill:#008080;fill-opacity:1;stroke:#000000;stroke-width:1px;stroke-linecap:butt;stroke-linejoin:miter;stroke-opacity:1"
         d="m -95.5,1020.3622 0,0 -32,0 -128,192 0,-128 -96,128 0,-192 -32,0 m -0.5,0 0,256 96,-128 0,128 192,-256 0,0 0,0" />
    </g>
  </g>
</svg>
